<svg width="1970" height="519" viewBox="0 0 1970 519" fill="none" xmlns="http://www.w3.org/2000/svg">
<g filter="url(#filter0_d_326_99)">
<path d="M75 317.535V80.5016H1844.79C1844.86 80.4995 1844.93 80.4995 1845 80.5016H1844.79C1831.65 80.8984 1781.77 153.369 1740.5 185.016C1725.5 196.518 1695 223.022 1640 223.022C1610.4 223.022 1534.5 202.019 1488.5 202.019C1381.5 202.019 1337.16 290.033 1273 317.535C1208.84 345.037 1091 332.534 999 301.031C935 279.116 894 251.247 844.5 230.523C823 221.522 764.5 206.52 705 206.52C639.5 206.52 628 210.52 564 230.523C507.094 248.309 427 307.534 395 338.538C393.4 341.339 366.5 363.306 345 377.044C327 388.545 306.5 398.547 274 398.547C249.148 398.547 212 384.878 196.5 377.044L162 361.041L118 338.538L75 317.535Z" fill="url(#paint0_radial_326_99)"/>
</g>
<defs>
<filter id="filter0_d_326_99" x="0" y="0.5" width="1970" height="518.047" filterUnits="userSpaceOnUse" color-interpolation-filters="sRGB">
<feFlood flood-opacity="0" result="BackgroundImageFix"/>
<feColorMatrix in="SourceAlpha" type="matrix" values="0 0 0 0 0 0 0 0 0 0 0 0 0 0 0 0 0 0 127 0" result="hardAlpha"/>
<feOffset dx="25" dy="20"/>
<feGaussianBlur stdDeviation="50"/>
<feComposite in2="hardAlpha" operator="out"/>
<feColorMatrix type="matrix" values="0 0 0 0 0 0 0 0 0 0 0 0 0 0 0 0 0 0 0.5 0"/>
<feBlend mode="normal" in2="BackgroundImageFix" result="effect1_dropShadow_326_99"/>
<feBlend mode="normal" in="SourceGraphic" in2="effect1_dropShadow_326_99" result="shape"/>
</filter>
<radialGradient id="paint0_radial_326_99" cx="0" cy="0" r="1" gradientUnits="userSpaceOnUse" gradientTransform="translate(75 80.5) rotate(33.1807) scale(2478.05 949.295)">
<stop offset="0.0863542" stop-color="#03518F"/>
<stop offset="0.740856" stop-color="#042F59"/>
</radialGradient>
</defs>
</svg>
