<svg width="1920" height="967" viewBox="0 0 1920 967" fill="none" xmlns="http://www.w3.org/2000/svg">
<path d="M1920 0H1.63317e-05L0 763L86.0224 821L169.044 876.5C186.382 888.333 229.753 911.897 261.568 922C304.079 935.5 321.084 937 361.594 932C406.106 924 450.217 898.9 478.625 876.5C506.298 855 571.149 810.9 609.159 806.5C647.169 802.1 663.673 805.25 673.675 808.5C713.686 821.5 742.693 835 780.703 861C808.21 879.816 905.736 938.5 966.252 955.5C1001.26 969.5 1096.29 972.5 1144.3 950C1173.3 936.41 1257.66 891.667 1294.84 867L1424.87 786C1466.38 758 1536.4 727.5 1575.41 714.5C1610.24 702.893 1661.93 703.5 1671.44 706.5C1678.31 708.672 1721.78 715 1742.45 719.5C1752.46 723.5 1784.46 723.5 1798.47 717C1810.07 716.6 1835.98 701.5 1845.98 690C1851.98 689.6 1891.99 633 1907.5 603L1920 575V0Z" fill="url(#paint0_radial_338_90)"/>
<defs>
<radialGradient id="paint0_radial_338_90" cx="0" cy="0" r="1" gradientUnits="userSpaceOnUse" gradientTransform="translate(-0.499512 383) rotate(35.4309) scale(2433.07 716.378)">
<stop offset="0.1" stop-color="#03518F"/>
<stop offset="0.85" stop-color="#022950"/>
</radialGradient>
</defs>
</svg>
