<svg xmlns="http://www.w3.org/2000/svg" xmlns:xlink="http://www.w3.org/1999/xlink" viewBox="0,0,256,256" width="50px" height="50px"><g fill="#1f5297" fill-rule="nonzero" stroke="none" stroke-width="1" stroke-linecap="butt" stroke-linejoin="miter" stroke-miterlimit="10" stroke-dasharray="" stroke-dashoffset="0" font-family="none" font-weight="none" font-size="none" text-anchor="none" style="mix-blend-mode: normal"><g transform="scale(5.12,5.12)"><path d="M8,5c-1.654,0 -3,1.346 -3,3v35c0,1.654 1.346,3 3,3h6v-28.5c0,-3.033 2.467,-5.5 5.5,-5.5h7.5c5.514,0 10,4.486 10,10c0,5.514 -4.486,10 -10,10h-8v14h24c1.654,0 3,-1.346 3,-3v-35c0,-1.654 -1.346,-3 -3,-3zM19,17v10h8c2.757,0 5,-2.243 5,-5c0,-2.757 -2.243,-5 -5,-5z"></path></g></g></svg>