<svg width="1920" height="720" viewBox="0 0 1920 720" fill="none" xmlns="http://www.w3.org/2000/svg">
<path d="M0 639V0H1920L1919.5 207.501C1919.5 207.501 1708 474.685 1666.5 506.502C1651.5 518.002 1621 544.502 1566 544.502C1536.4 544.502 1460.5 523.502 1414.5 523.502C1307.5 523.502 1260.5 611.002 1197.5 638.002C1135.5 676.002 1011.5 671.502 925 638.002C883 618.502 820 572.722 770.5 552.002C749 543.002 690.5 528.002 631 528.002C565.5 528.002 554 532.002 490 552.002C433.094 569.785 353 629.002 321 660.002C319.4 662.802 292.5 684.765 271 698.502C253 710.002 232.5 720.002 200 720.002C175.148 720.002 138 706.335 122.5 698.502L88 682.502L44 660.002L0 639Z" fill="url(#paint0_radial_338_93)"/>
<defs>
<radialGradient id="paint0_radial_338_93" cx="0" cy="0" r="1" gradientUnits="userSpaceOnUse" gradientTransform="translate(1.00117 402.001) rotate(33.177) scale(2477.94 949.2)">
<stop offset="0.0863542" stop-color="#03518F"/>
<stop offset="0.740856" stop-color="#042F59"/>
</radialGradient>
</defs>
</svg>
